<svg xmlns="http://www.w3.org/2000/svg" version="1.1" xmlns:xlink="http://www.w3.org/1999/xlink" xmlns:svgjs="http://svgjs.dev/svgjs" viewBox="0 0 12.05129580726138 3.429546264952209"><g transform="matrix(1,0,0,1,3.534283327297262,1.1425231324761045)"><g><path d=" M 0.159 1.1444999999999999 Q 0.1395 1.1444999999999999 0.12675 1.1332499999999999 Q 0.114 1.1219999999999999 0.114 1.1069999999999998 L 0.114 0.08549999999999991 Q 0.114 0.0674999999999999 0.12825 0.057749999999999746 Q 0.14250000000000002 0.04799999999999982 0.159 0.04799999999999982 L 0.405 0.04799999999999982 Q 0.489 0.04799999999999982 0.55875 0.0674999999999999 Q 0.6285000000000001 0.08699999999999974 0.6697500000000001 0.14174999999999982 Q 0.711 0.19649999999999979 0.711 0.3029999999999998 Q 0.711 0.39749999999999985 0.67575 0.4612499999999998 Q 0.6405 0.5249999999999998 0.5835 0.5504999999999999 Q 0.63 0.5684999999999998 0.6645 0.5999999999999999 Q 0.6990000000000001 0.6314999999999998 0.7185 0.6809999999999998 Q 0.738 0.7304999999999998 0.738 0.8084999999999998 L 0.738 0.8354999999999999 Q 0.738 0.9494999999999998 0.6990000000000001 1.017 Q 0.66 1.0844999999999998 0.5925 1.1144999999999998 Q 0.525 1.1444999999999999 0.4425 1.1444999999999999 L 0.159 1.1444999999999999 M 0.213 1.053 L 0.429 1.053 Q 0.528 1.053 0.5835 0.9997499999999999 Q 0.639 0.9464999999999999 0.639 0.8309999999999998 L 0.639 0.8054999999999999 Q 0.639 0.6884999999999999 0.5835 0.6404999999999998 Q 0.528 0.5924999999999998 0.429 0.5924999999999998 L 0.213 0.5924999999999998 L 0.213 1.053 M 0.213 0.5069999999999998 L 0.40800000000000003 0.5069999999999998 Q 0.513 0.5069999999999998 0.5625 0.4634999999999998 Q 0.612 0.4199999999999998 0.612 0.3134999999999998 Q 0.612 0.24299999999999988 0.585 0.2054999999999998 Q 0.558 0.16799999999999982 0.5115000000000001 0.15374999999999983 Q 0.465 0.13949999999999974 0.402 0.13949999999999974 L 0.213 0.13949999999999974 L 0.213 0.5069999999999998 M 0.9975373535156251 0.22499999999999987 Q 0.9705373535156251 0.22499999999999987 0.951037353515625 0.20624999999999982 Q 0.931537353515625 0.18749999999999978 0.931537353515625 0.1619999999999998 Q 0.931537353515625 0.13649999999999984 0.951037353515625 0.11849999999999983 Q 0.9705373535156251 0.10049999999999981 0.9975373535156251 0.10049999999999981 Q 1.024537353515625 0.10049999999999981 1.044037353515625 0.11849999999999983 Q 1.063537353515625 0.13649999999999984 1.063537353515625 0.1619999999999998 Q 1.063537353515625 0.18749999999999978 1.044037353515625 0.20624999999999982 Q 1.024537353515625 0.22499999999999987 0.9975373535156251 0.22499999999999987 M 0.9960373535156251 1.1444999999999999 Q 0.976537353515625 1.1444999999999999 0.962287353515625 1.1324999999999998 Q 0.948037353515625 1.1204999999999998 0.948037353515625 1.1055 L 0.948037353515625 0.47099999999999986 Q 0.948037353515625 0.4544999999999998 0.962287353515625 0.44474999999999987 Q 0.976537353515625 0.43499999999999983 0.9960373535156251 0.43499999999999983 Q 1.017037353515625 0.43499999999999983 1.031287353515625 0.44474999999999987 Q 1.0455373535156252 0.4544999999999998 1.0455373535156252 0.47099999999999986 L 1.0455373535156252 1.1055 Q 1.0455373535156252 1.1204999999999998 1.031287353515625 1.1324999999999998 Q 1.017037353515625 1.1444999999999999 0.9960373535156251 1.1444999999999999 M 1.515076171875 1.1444999999999999 Q 1.3995761718750002 1.1444999999999999 1.338076171875 1.0919999999999999 Q 1.2765761718750002 1.0394999999999999 1.2765761718750002 0.9239999999999998 L 1.2765761718750002 0.13349999999999973 Q 1.2765761718750002 0.11699999999999977 1.292326171875 0.10724999999999985 Q 1.308076171875 0.09749999999999992 1.324576171875 0.09749999999999992 Q 1.344076171875 0.09749999999999992 1.3590761718750002 0.10724999999999985 Q 1.374076171875 0.11699999999999977 1.374076171875 0.13349999999999973 L 1.374076171875 0.43499999999999983 L 1.5690761718750001 0.43499999999999983 Q 1.584076171875 0.43499999999999983 1.5930761718750002 0.44699999999999984 Q 1.602076171875 0.45899999999999985 1.602076171875 0.4754999999999998 Q 1.602076171875 0.4919999999999999 1.5930761718750002 0.5039999999999999 Q 1.584076171875 0.5159999999999998 1.5690761718750001 0.5159999999999998 L 1.374076171875 0.5159999999999998 L 1.374076171875 0.9239999999999998 Q 1.374076171875 0.9974999999999998 1.4055761718750002 1.0267499999999998 Q 1.437076171875 1.0559999999999998 1.515076171875 1.0559999999999998 L 1.5570761718750001 1.0559999999999998 Q 1.578076171875 1.0559999999999998 1.589326171875 1.0687499999999999 Q 1.6005761718750002 1.0815 1.6005761718750002 1.0995 Q 1.6005761718750002 1.1175 1.589326171875 1.1309999999999998 Q 1.578076171875 1.1444999999999999 1.5570761718750001 1.1444999999999999 L 1.515076171875 1.1444999999999999 M 1.963550537109375 1.1549999999999998 Q 1.893050537109375 1.1549999999999998 1.840550537109375 1.1369999999999998 Q 1.7880505371093751 1.1189999999999998 1.758050537109375 1.09425 Q 1.728050537109375 1.0695 1.728050537109375 1.047 Q 1.728050537109375 1.0364999999999998 1.7325505371093752 1.0267499999999998 Q 1.7370505371093752 1.017 1.745300537109375 1.0094999999999998 Q 1.7535505371093751 1.0019999999999998 1.762550537109375 1.0019999999999998 Q 1.7790505371093752 1.0019999999999998 1.799300537109375 1.0192499999999998 Q 1.8195505371093752 1.0364999999999998 1.856300537109375 1.0544999999999998 Q 1.893050537109375 1.0724999999999998 1.9605505371093752 1.0724999999999998 Q 2.046050537109375 1.0724999999999998 2.0805505371093753 1.04025 Q 2.1150505371093753 1.0079999999999998 2.1150505371093753 0.9659999999999999 Q 2.1150505371093753 0.9164999999999999 2.088800537109375 0.8887499999999998 Q 2.062550537109375 0.8609999999999998 2.0198005371093752 0.8452499999999998 Q 1.9770505371093752 0.8294999999999999 1.9298005371093752 0.8167499999999999 Q 1.8825505371093751 0.8039999999999998 1.839800537109375 0.7837499999999998 Q 1.7970505371093752 0.7634999999999998 1.7708005371093751 0.7274999999999998 Q 1.744550537109375 0.6914999999999998 1.744550537109375 0.6299999999999999 Q 1.744550537109375 0.5819999999999999 1.768550537109375 0.5347499999999998 Q 1.792550537109375 0.4874999999999998 1.8443005371093752 0.4567499999999999 Q 1.8960505371093752 0.4259999999999998 1.9815505371093751 0.4259999999999998 Q 2.031050537109375 0.4259999999999998 2.077550537109375 0.4364999999999999 Q 2.124050537109375 0.44699999999999984 2.153300537109375 0.46424999999999983 Q 2.182550537109375 0.4814999999999998 2.182550537109375 0.49949999999999983 Q 2.182550537109375 0.5069999999999998 2.177300537109375 0.5189999999999998 Q 2.1720505371093752 0.5309999999999998 2.163050537109375 0.5407499999999998 Q 2.154050537109375 0.5504999999999999 2.142050537109375 0.5504999999999999 Q 2.130050537109375 0.5504999999999999 2.109800537109375 0.5392499999999998 Q 2.089550537109375 0.5279999999999998 2.0580505371093754 0.5182499999999999 Q 2.026550537109375 0.5084999999999998 1.9830505371093752 0.5084999999999998 Q 1.9290505371093751 0.5084999999999998 1.8960505371093752 0.5279999999999998 Q 1.863050537109375 0.5474999999999999 1.8480505371093752 0.5737499999999999 Q 1.833050537109375 0.5999999999999999 1.833050537109375 0.6254999999999998 Q 1.833050537109375 0.6689999999999998 1.8600505371093752 0.6914999999999998 Q 1.887050537109375 0.7139999999999999 1.9298005371093752 0.7282499999999998 Q 1.9725505371093752 0.7424999999999998 2.0198005371093752 0.7552499999999999 Q 2.0670505371093753 0.7679999999999998 2.109800537109375 0.7904999999999999 Q 2.1525505371093754 0.8129999999999998 2.178800537109375 0.8534999999999999 Q 2.205050537109375 0.8939999999999999 2.205050537109375 0.9614999999999998 Q 2.205050537109375 1.0499999999999998 2.142050537109375 1.1024999999999998 Q 2.0790505371093753 1.1549999999999998 1.963550537109375 1.1549999999999998 M 3.004604736328125 1.1549999999999998 Q 2.9281047363281254 1.1549999999999998 2.863604736328125 1.1152499999999999 Q 2.7991047363281254 1.0755 2.7593547363281252 1.0102499999999999 Q 2.719604736328125 0.9449999999999998 2.719604736328125 0.8699999999999999 L 2.719604736328125 0.7064999999999999 Q 2.719604736328125 0.6314999999999998 2.758604736328125 0.5677499999999999 Q 2.7976047363281253 0.5039999999999999 2.862104736328125 0.46499999999999986 Q 2.9266047363281253 0.4259999999999998 3.004604736328125 0.4259999999999998 Q 3.0811047363281254 0.4259999999999998 3.1463547363281252 0.46424999999999983 Q 3.211604736328125 0.5024999999999998 3.250604736328125 0.5654999999999999 Q 3.2896047363281253 0.6284999999999998 3.2896047363281253 0.7064999999999999 L 3.2896047363281253 0.8699999999999999 Q 3.2896047363281253 0.9434999999999998 3.250604736328125 1.0094999999999998 Q 3.211604736328125 1.0755 3.1463547363281252 1.1152499999999999 Q 3.0811047363281254 1.1549999999999998 3.004604736328125 1.1549999999999998 M 3.004604736328125 1.065 Q 3.0571047363281254 1.065 3.099104736328125 1.0372499999999998 Q 3.141104736328125 1.0094999999999998 3.166604736328125 0.9644999999999999 Q 3.192104736328125 0.9194999999999999 3.192104736328125 0.8699999999999999 L 3.192104736328125 0.7064999999999999 Q 3.192104736328125 0.6584999999999999 3.167354736328125 0.6149999999999999 Q 3.142604736328125 0.5714999999999998 3.0998547363281252 0.5437499999999998 Q 3.0571047363281254 0.5159999999999998 3.004604736328125 0.5159999999999998 Q 2.952104736328125 0.5159999999999998 2.910104736328125 0.5437499999999998 Q 2.8681047363281253 0.5714999999999998 2.8426047363281253 0.6149999999999999 Q 2.817104736328125 0.6584999999999999 2.817104736328125 0.7064999999999999 L 2.817104736328125 0.8699999999999999 Q 2.817104736328125 0.9194999999999999 2.8426047363281253 0.9644999999999999 Q 2.8681047363281253 1.0094999999999998 2.910854736328125 1.0372499999999998 Q 2.953604736328125 1.065 3.004604736328125 1.065 M 3.5460959472656253 1.1444999999999999 Q 3.5265959472656254 1.1444999999999999 3.5130959472656254 1.134 Q 3.4995959472656253 1.1235 3.4995959472656253 1.1069999999999998 L 3.4995959472656253 0.2759999999999998 Q 3.4995959472656253 0.1994999999999998 3.5363459472656253 0.13724999999999987 Q 3.5730959472656254 0.07499999999999973 3.633845947265625 0.03749999999999987 Q 3.694595947265625 -2.220446049250313e-16 3.766595947265625 -2.220446049250313e-16 L 3.8040959472656253 -2.220446049250313e-16 Q 3.825095947265625 -2.220446049250313e-16 3.835595947265625 0.013499999999999845 Q 3.846095947265625 0.026999999999999913 3.846095947265625 0.04499999999999993 Q 3.846095947265625 0.06149999999999989 3.835595947265625 0.07499999999999973 Q 3.825095947265625 0.0884999999999998 3.8040959472656253 0.0884999999999998 L 3.778595947265625 0.0884999999999998 Q 3.727595947265625 0.0884999999999998 3.6863459472656253 0.11324999999999985 Q 3.6450959472656255 0.1379999999999999 3.6218459472656255 0.1792499999999998 Q 3.5985959472656255 0.2204999999999998 3.5970959472656254 0.26849999999999985 L 3.5970959472656254 0.43499999999999983 L 3.811595947265625 0.43499999999999983 Q 3.8280959472656253 0.43499999999999983 3.837095947265625 0.44699999999999984 Q 3.846095947265625 0.45899999999999985 3.846095947265625 0.47399999999999987 Q 3.846095947265625 0.4904999999999998 3.837095947265625 0.5032499999999999 Q 3.8280959472656253 0.5159999999999998 3.811595947265625 0.5159999999999998 L 3.5970959472656254 0.5159999999999998 L 3.5970959472656254 1.1069999999999998 Q 3.5970959472656254 1.1235 3.5820959472656253 1.134 Q 3.567095947265625 1.1444999999999999 3.5460959472656253 1.1444999999999999 M 4.945603271484376 1.146 Q 4.929103271484375 1.146 4.915603271484375 1.1295 Q 4.902103271484375 1.1129999999999998 4.8946032714843755 1.0949999999999998 L 4.6621032714843755 0.6449999999999998 L 4.471603271484375 0.6449999999999998 L 4.471603271484375 1.1055 Q 4.471603271484375 1.1249999999999998 4.455853271484376 1.13475 Q 4.440103271484375 1.1444999999999999 4.422103271484375 1.1444999999999999 Q 4.4026032714843755 1.1444999999999999 4.387603271484375 1.13475 Q 4.372603271484375 1.1249999999999998 4.372603271484375 1.1055 L 4.372603271484375 0.08399999999999985 Q 4.372603271484375 0.06899999999999973 4.383103271484376 0.0592499999999998 Q 4.393603271484375 0.04949999999999988 4.410103271484376 0.04799999999999982 L 4.675603271484375 0.04799999999999982 Q 4.764103271484375 0.04799999999999982 4.837603271484375 0.07499999999999973 Q 4.911103271484375 0.10199999999999987 4.955353271484375 0.16574999999999984 Q 4.999603271484375 0.22949999999999982 4.999603271484375 0.3434999999999998 Q 4.999603271484375 0.4364999999999999 4.968853271484376 0.49649999999999983 Q 4.938103271484375 0.5564999999999999 4.884853271484375 0.5887499999999999 Q 4.831603271484376 0.6209999999999999 4.765603271484375 0.6329999999999998 L 4.996603271484375 1.077 Q 5.001103271484375 1.0815 5.001853271484375 1.0867499999999999 Q 5.002603271484375 1.0919999999999999 5.002603271484375 1.0964999999999998 Q 5.002603271484375 1.1084999999999998 4.994353271484376 1.1204999999999998 Q 4.986103271484375 1.1324999999999998 4.972603271484376 1.1392499999999999 Q 4.959103271484375 1.146 4.945603271484376 1.146 M 4.471603271484375 0.5594999999999999 L 4.675603271484375 0.5594999999999999 Q 4.776103271484375 0.5594999999999999 4.838353271484375 0.5107499999999998 Q 4.900603271484376 0.46199999999999986 4.900603271484376 0.34799999999999986 Q 4.900603271484376 0.23549999999999982 4.838353271484375 0.18749999999999978 Q 4.776103271484375 0.13949999999999974 4.675603271484375 0.13949999999999974 L 4.471603271484375 0.13949999999999974 L 4.471603271484375 0.5594999999999999 M 5.472146484375 1.1549999999999998 Q 5.377646484375 1.1549999999999998 5.304896484375 1.1189999999999998 Q 5.232146484375001 1.0829999999999997 5.190896484375 1.0192499999999998 Q 5.149646484375 0.9554999999999998 5.149646484375 0.8699999999999999 L 5.149646484375 0.7019999999999998 Q 5.149646484375 0.6269999999999999 5.188646484375 0.5639999999999998 Q 5.227646484375001 0.5009999999999999 5.292896484375 0.4634999999999998 Q 5.358146484375 0.4259999999999998 5.4361464843750005 0.4259999999999998 Q 5.511146484375001 0.4259999999999998 5.574896484375 0.4612499999999998 Q 5.638646484375 0.49649999999999983 5.677646484375001 0.5579999999999998 Q 5.7166464843750004 0.6194999999999998 5.7166464843750004 0.6989999999999998 Q 5.7166464843750004 0.7574999999999998 5.697146484375001 0.7822499999999999 Q 5.677646484375001 0.8069999999999998 5.6483964843750005 0.8129999999999998 Q 5.619146484375 0.8189999999999998 5.586146484375 0.8189999999999998 L 5.247146484375 0.8189999999999998 L 5.247146484375 0.8744999999999998 Q 5.247146484375 0.9644999999999999 5.311646484375 1.017 Q 5.376146484375 1.0695 5.475146484375 1.0695 Q 5.535146484375001 1.0695 5.568146484375 1.0544999999999998 Q 5.6011464843750005 1.0394999999999999 5.619896484375 1.0244999999999997 Q 5.638646484375 1.0094999999999998 5.655146484375001 1.0094999999999998 Q 5.667146484375 1.0094999999999998 5.676896484375001 1.01775 Q 5.686646484375 1.0259999999999998 5.691896484375 1.0364999999999998 Q 5.697146484375001 1.047 5.697146484375001 1.0559999999999998 Q 5.697146484375001 1.0724999999999998 5.6701464843750005 1.0964999999999998 Q 5.643146484375 1.1204999999999998 5.592146484375 1.1377499999999998 Q 5.541146484375 1.1549999999999998 5.472146484375 1.1549999999999998 M 5.247146484375 0.7469999999999999 L 5.547146484375 0.7469999999999999 Q 5.592146484375 0.7469999999999999 5.607146484375001 0.7372499999999998 Q 5.622146484375 0.7274999999999998 5.622146484375 0.6959999999999998 Q 5.622146484375 0.6479999999999999 5.598896484375 0.6044999999999998 Q 5.575646484375 0.5609999999999998 5.532896484375001 0.5339999999999998 Q 5.490146484375001 0.5069999999999998 5.434646484375 0.5069999999999998 Q 5.383646484375 0.5069999999999998 5.340896484375 0.5317499999999998 Q 5.298146484375001 0.5564999999999999 5.2726464843750005 0.5977499999999999 Q 5.247146484375 0.6389999999999998 5.247146484375 0.6899999999999998 L 5.247146484375 0.7469999999999999 M 6.067658203125 1.1549999999999998 Q 5.9836582031250005 1.1549999999999998 5.923658203125 1.10625 Q 5.863658203125 1.0574999999999999 5.863658203125 0.9569999999999999 Q 5.863658203125 0.8744999999999998 5.907908203125 0.8302499999999998 Q 5.952158203125 0.7859999999999998 6.0309082031250005 0.7687499999999998 Q 6.109658203125001 0.7514999999999998 6.213158203125 0.7514999999999998 L 6.289658203125001 0.7514999999999998 L 6.289658203125001 0.7154999999999998 Q 6.289658203125001 0.6674999999999998 6.272408203125001 0.6202499999999999 Q 6.255158203125 0.5729999999999998 6.2169082031250005 0.5422499999999998 Q 6.178658203125001 0.5114999999999998 6.112658203125 0.5114999999999998 Q 6.063158203125001 0.5114999999999998 6.031658203125001 0.5219999999999998 Q 6.000158203125 0.5324999999999999 5.9821582031250005 0.5437499999999998 Q 5.964158203125001 0.5549999999999998 5.952158203125 0.5549999999999998 Q 5.934158203125 0.5549999999999998 5.923658203125 0.5369999999999998 Q 5.9131582031250005 0.5189999999999998 5.9131582031250005 0.5024999999999998 Q 5.9131582031250005 0.4829999999999999 5.943908203125001 0.4657499999999999 Q 5.974658203125 0.4484999999999998 6.021908203125 0.4372499999999998 Q 6.069158203125 0.4259999999999998 6.115658203125 0.4259999999999998 Q 6.2161582031250004 0.4259999999999998 6.275408203125 0.46724999999999983 Q 6.3346582031250005 0.5084999999999998 6.360908203125001 0.5744999999999998 Q 6.387158203125001 0.6404999999999998 6.387158203125001 0.7154999999999998 L 6.387158203125001 1.1055 Q 6.387158203125001 1.1219999999999999 6.374408203125 1.1332499999999999 Q 6.361658203125001 1.1444999999999999 6.339158203125001 1.1444999999999999 Q 6.321158203125 1.1444999999999999 6.307658203125 1.1332499999999999 Q 6.294158203125001 1.1219999999999999 6.294158203125001 1.1055 L 6.294158203125001 1.0394999999999999 Q 6.255158203125 1.0829999999999997 6.199658203125001 1.1189999999999998 Q 6.144158203125 1.1549999999999998 6.067658203125 1.1549999999999998 M 6.091658203125 1.0724999999999998 Q 6.141158203125 1.0724999999999998 6.186158203125 1.047 Q 6.231158203125 1.0214999999999999 6.260408203125 0.9847499999999998 Q 6.289658203125001 0.9479999999999998 6.289658203125001 0.9149999999999998 L 6.289658203125001 0.8189999999999998 L 6.226658203125001 0.8189999999999998 Q 6.159158203125 0.8189999999999998 6.098408203125 0.8272499999999998 Q 6.037658203125001 0.8354999999999999 5.999408203125 0.8624999999999998 Q 5.9611582031250006 0.8894999999999998 5.9611582031250006 0.9479999999999998 Q 5.9611582031250006 1.0124999999999997 5.999408203125 1.0424999999999998 Q 6.037658203125001 1.0724999999999998 6.091658203125 1.0724999999999998 M 6.676640625 1.1444999999999999 Q 6.657140625 1.1444999999999999 6.642890625000001 1.1324999999999998 Q 6.628640625 1.1204999999999998 6.628640625 1.1055 L 6.628640625 0.03599999999999981 Q 6.628640625 0.01949999999999985 6.642890625000001 0.009749999999999925 Q 6.657140625 -2.220446049250313e-16 6.676640625 -2.220446049250313e-16 Q 6.697640625000001 -2.220446049250313e-16 6.7118906250000006 0.009749999999999925 Q 6.726140625 0.01949999999999985 6.726140625 0.03599999999999981 L 6.726140625 1.1055 Q 6.726140625 1.1204999999999998 6.7118906250000006 1.1324999999999998 Q 6.697640625000001 1.1444999999999999 6.676640625 1.1444999999999999 M 7.2106523437500005 1.1444999999999999 Q 7.095152343750001 1.1444999999999999 7.033652343750001 1.0919999999999999 Q 6.97215234375 1.0394999999999999 6.97215234375 0.9239999999999998 L 6.97215234375 0.13349999999999973 Q 6.97215234375 0.11699999999999977 6.98790234375 0.10724999999999985 Q 7.003652343750001 0.09749999999999992 7.02015234375 0.09749999999999992 Q 7.03965234375 0.09749999999999992 7.054652343750001 0.10724999999999985 Q 7.0696523437500005 0.11699999999999977 7.0696523437500005 0.13349999999999973 L 7.0696523437500005 0.43499999999999983 L 7.264652343750001 0.43499999999999983 Q 7.2796523437500005 0.43499999999999983 7.288652343750001 0.44699999999999984 Q 7.29765234375 0.45899999999999985 7.29765234375 0.4754999999999998 Q 7.29765234375 0.4919999999999999 7.288652343750001 0.5039999999999999 Q 7.2796523437500005 0.5159999999999998 7.264652343750001 0.5159999999999998 L 7.0696523437500005 0.5159999999999998 L 7.0696523437500005 0.9239999999999998 Q 7.0696523437500005 0.9974999999999998 7.101152343750001 1.0267499999999998 Q 7.13265234375 1.0559999999999998 7.2106523437500005 1.0559999999999998 L 7.25265234375 1.0559999999999998 Q 7.27365234375 1.0559999999999998 7.284902343750001 1.0687499999999999 Q 7.29615234375 1.0815 7.29615234375 1.0995 Q 7.29615234375 1.1175 7.284902343750001 1.1309999999999998 Q 7.27365234375 1.1444999999999999 7.25265234375 1.1444999999999999 L 7.2106523437500005 1.1444999999999999 M 7.4401267089843754 1.4925 Q 7.420626708984376 1.4925 7.407876708984375 1.4827499999999998 Q 7.3951267089843755 1.4729999999999999 7.3951267089843755 1.4489999999999998 Q 7.3951267089843755 1.4309999999999998 7.401876708984376 1.4175 Q 7.408626708984375 1.404 7.425126708984376 1.404 Q 7.461126708984375 1.404 7.494126708984376 1.3815 Q 7.527126708984375 1.3589999999999998 7.555626708984375 1.3177499999999998 Q 7.584126708984376 1.2765 7.6066267089843755 1.2247499999999998 Q 7.6291267089843755 1.1729999999999998 7.642626708984375 1.1144999999999998 L 7.398126708984376 0.4859999999999999 Q 7.3936267089843755 0.4784999999999998 7.3936267089843755 0.4724999999999998 Q 7.3936267089843755 0.45899999999999985 7.403376708984376 0.4484999999999998 Q 7.413126708984375 0.43799999999999983 7.427376708984376 0.43199999999999983 Q 7.4416267089843755 0.4259999999999998 7.453626708984376 0.4259999999999998 Q 7.4656267089843755 0.4259999999999998 7.475376708984376 0.4312499999999998 Q 7.485126708984375 0.4364999999999999 7.4881267089843755 0.44699999999999984 L 7.693626708984375 0.9989999999999999 L 7.8871267089843755 0.44699999999999984 Q 7.891626708984376 0.4364999999999999 7.900626708984376 0.4312499999999998 Q 7.9096267089843755 0.4259999999999998 7.920126708984376 0.4259999999999998 Q 7.932126708984375 0.4259999999999998 7.946376708984376 0.43199999999999983 Q 7.960626708984376 0.43799999999999983 7.970376708984375 0.4484999999999998 Q 7.9801267089843755 0.45899999999999985 7.9801267089843755 0.47399999999999987 Q 7.9801267089843755 0.4814999999999998 7.977126708984375 0.4859999999999999 L 7.744626708984375 1.1159999999999999 Q 7.7221267089843755 1.176 7.696626708984375 1.2419999999999998 Q 7.671126708984375 1.3079999999999998 7.637376708984376 1.3642499999999997 Q 7.603626708984375 1.4204999999999999 7.555626708984375 1.4565 Q 7.507626708984375 1.4925 7.4401267089843754 1.4925" fill="#431a10" fill-rule="nonzero"></path></g><g></g><g clip-path="url(#SvgjsClipPath1001)"><g clip-path="url(#SvgjsClipPath1000450467af-2fcf-4b2d-a0b0-861081f2e32e)"><path d=" M -2.696081057053887 1.7726117267307382 C -2.723615367556766 1.7726117267307382 -2.74593633643887 1.7502907578486355 -2.74593633643887 1.722756447345756 L -2.74593633643887 0.6270371170226048 C -2.74593633643887 0.5995028065197252 -2.723615367556766 0.5771818376376223 -2.696081057053887 0.5771818376376223 C -2.6685467465510078 0.5771818376376223 -2.646225777668904 0.5995028065197252 -2.646225777668904 0.6270371170226048 L -2.646225777668904 1.722756447345756 C -2.646225777668904 1.7502907578486355 -2.6685467465510078 1.7726117267307382 -2.696081057053887 1.7726117267307382 Z" fill="#431a10" transform="matrix(1,0,0,1,0,0)" fill-rule="nonzero"></path></g><g clip-path="url(#SvgjsClipPath1000450467af-2fcf-4b2d-a0b0-861081f2e32e)"><path d=" M -0.7237908644980058 1.7726117267307382 C -0.7513251750008849 1.7726117267307382 -0.7736461438829889 1.7502907578486355 -0.7736461438829889 1.722756447345756 L -0.7736461438829889 0.6270371170226048 C -0.7736461438829889 0.5995028065197252 -0.7513251750008849 0.5771818376376223 -0.7237908644980058 0.5771818376376223 C -0.6962565539951266 0.5771818376376223 -0.6739355851130227 0.5995028065197252 -0.6739355851130227 0.6270371170226048 L -0.6739355851130227 1.722756447345756 C -0.6739355851130227 1.7502907578486355 -0.6962565539951266 1.7726117267307382 -0.7237908644980058 1.7726117267307382 Z" fill="#431a10" transform="matrix(1,0,0,1,0,0)" fill-rule="nonzero"></path></g><g clip-path="url(#SvgjsClipPath1000450467af-2fcf-4b2d-a0b0-861081f2e32e)"><path d=" M -1.0525058965906522 1.4438966946380911 L -1.6003617267307368 1.4438966946380911 C -1.627896037233616 1.4438966946380911 -1.6502170061157198 1.421575725755988 -1.6502170061157198 1.3940414152531084 L -1.6502170061157198 0.8461779150700421 C -1.6502170061157198 0.8186436045671626 -1.627896037233616 0.7963226356850592 -1.6003617267307368 0.7963226356850592 L -1.0525058965906522 0.7963226356850592 C -1.024971586087773 0.7963226356850592 -1.0026506172056702 0.8186436045671626 -1.0026506172056702 0.8461779150700421 L -1.0026506172056702 1.3940414152531089 C -1.0026506172056702 1.4215757257559885 -1.0249715860877722 1.4438966946380911 -1.0525058965906522 1.4438966946380916 Z M -1.550506447345754 1.3441861358681255 L -1.102361175975635 1.3441861358681255 L -1.102361175975635 0.8960331944550246 L -1.550506447345754 0.8960331944550246 Z" fill="#3e7742" transform="matrix(1,0,0,1,0,0)" fill-rule="nonzero"></path></g><g clip-path="url(#SvgjsClipPath1000450467af-2fcf-4b2d-a0b0-861081f2e32e)"><path d=" M -0.8881445455228394 0.10009749409526647 L -0.8881445455228394 -0.41389509627794097 L -1.2168595776154862 -0.41389509627794097 L -1.2168595776154862 -0.1709311447274643 Z" fill="#b88059" transform="matrix(1,0,0,1,0,0)" fill-rule="nonzero"></path></g><g clip-path="url(#SvgjsClipPath1000450467af-2fcf-4b2d-a0b0-861081f2e32e)"><path d=" M -0.8881445455228381 0.14994510343726697 C -0.9156788560257172 0.14994510343726697 -0.9379998249078212 0.12762413455516375 -0.9379998249078212 0.10008982405228428 L -0.9379998249078212 -0.3640398168929582 L -1.1670042982305024 -0.3640398168929582 L -1.1670042982305024 -0.17093881477044653 C -1.1670042982305024 -0.143404504267567 -1.1893252671126056 -0.12108353538546379 -1.2168595776154845 -0.12108353538546379 C -1.2443938881183636 -0.12108353538546379 -1.2667148570004674 -0.143404504267567 -1.2667148570004674 -0.17093881477044653 L -1.2667148570004674 -0.41389509627794097 C -1.2667148570004674 -0.44142940678082043 -1.2443938881183636 -0.46375037566292365 -1.2168595776154845 -0.46375037566292365 L -0.8881445455228381 -0.46375037566292365 C -0.8606102350199589 -0.46375037566292365 -0.8382892661378554 -0.44142940678082043 -0.8382892661378554 -0.41389509627794097 L -0.8382892661378554 0.10008982405228428 C -0.8382892661378554 0.12762413455516375 -0.8606102350199589 0.14994510343726697 -0.8881445455228381 0.14994510343726697 Z" fill="#431a10" transform="matrix(1,0,0,1,0,0)" fill-rule="nonzero"></path></g><g clip-path="url(#SvgjsClipPath1000450467af-2fcf-4b2d-a0b0-861081f2e32e)"><path d=" M -0.4498552793849817 1.7726117267307382 L -2.9700166421669127 1.7726117267307382 C -2.997550952669792 1.7726117267307382 -3.019871921551896 1.7502907578486355 -3.019871921551896 1.722756447345756 C -3.019871921551896 1.6952221368428764 -2.997550952669792 1.6729011679607728 -2.9700166421669127 1.6729011679607728 L -0.4498552793849817 1.6729011679607728 C -0.4223209688821026 1.6729011679607728 -0.3999999999999999 1.6952221368428764 -0.3999999999999999 1.722756447345756 C -0.3999999999999999 1.7502907578486355 -0.4223209688821026 1.7726117267307382 -0.4498552793849817 1.7726117267307382 Z" fill="#431a10" transform="matrix(1,0,0,1,0,0)" fill-rule="nonzero"></path></g><g clip-path="url(#SvgjsClipPath1000450467af-2fcf-4b2d-a0b0-861081f2e32e)"><path d=" M -1.9290767588233841 1.6044230242147535 C -1.9566110693262633 1.6044230242147535 -1.978932038208367 1.5821020553326504 -1.978932038208367 1.5545677448297708 L -1.978932038208367 0.8960331944550246 L -2.3175107455762585 0.8960331944550246 L -2.3175107455762585 1.5545677448297708 C -2.3175107455762585 1.5821020553326504 -2.3398317144583625 1.6044230242147535 -2.3673660249612416 1.6044230242147535 C -2.3949003354641207 1.6044230242147535 -2.4172213043462243 1.5821020553326504 -2.4172213043462243 1.5545677448297708 L -2.4172213043462243 0.8461779150700421 C -2.4172213043462243 0.8186436045671626 -2.3949003354641207 0.7963226356850592 -2.3673660249612416 0.7963226356850592 L -1.9290767588233841 0.7963226356850592 C -1.901542448320505 0.7963226356850592 -1.8792214794384012 0.8186436045671626 -1.8792214794384012 0.8461779150700421 L -1.8792214794384012 1.5545677448297708 C -1.8792214794384012 1.5821020553326504 -1.901542448320505 1.6044230242147535 -1.9290767588233841 1.6044230242147535 Z" fill="#3e7742" transform="matrix(1,0,0,1,0,0)" fill-rule="nonzero"></path></g><g clip-path="url(#SvgjsClipPath1000450467af-2fcf-4b2d-a0b0-861081f2e32e)"><path d=" M -0.4498552793849826 0.4626834359977725 L -1.709935960775948 -0.5782564473457557 L -2.970016642166913 0.4626834359977725 L -0.4498552793849826 0.4626834359977725 Z" fill="#b88059" transform="matrix(1,0,0,1,0,0)" fill-rule="nonzero"></path></g><g clip-path="url(#SvgjsClipPath1000450467af-2fcf-4b2d-a0b0-861081f2e32e)"><path d=" M -0.4498552793849817 0.5125310453397731 L -2.9700166421669127 0.5125310453397731 C -2.991043839764664 0.5125298436284171 -3.0098097274209357 0.4993360377222744 -3.0169266250466897 0.47954986051586124 C -3.02404306039604 0.45976068422927807 -3.01797672152382 0.4376340430519481 -3.0017629500706726 0.42424118057045934 L -1.7416899387226894 -0.6166910327300862 C -1.7232589095438438 -0.6319183400324859 -1.69661301200805 -0.6319183400324859 -1.6781819828292044 -0.6166910327300862 L -0.41810897148122184 0.42421817044151267 C -0.401895200028076 0.4376110329230014 -0.3958288611558558 0.45973767410033095 -0.4029452965052056 0.47952685038691456 C -0.41005449441668684 0.49932210042866765 -0.4288221484446737 0.5125263540719676 -0.4498552793849817 0.5125310453397731 Z M -2.8314036253906956 0.4128204865698073 L -0.5885143164190914 0.4128204865698073 L -1.7099359607759468 -0.5135903149619419 Z" fill="#431a10" transform="matrix(1,0,0,1,0,0)" fill-rule="nonzero"></path></g></g></g><defs><clipPath id="SvgjsClipPath1001"><path d=" M -3.019871921551896 -0.6281117267307383 h 2.619871921551896 v 2.4007234534614765 h -2.619871921551896 Z"></path></clipPath><clipPath id="SvgjsClipPath1000450467af-2fcf-4b2d-a0b0-861081f2e32e"><path d=" M -3.019871921551896 -0.6281117267307383 L -0.3999999999999999 -0.6281117267307383 L -0.3999999999999999 1.7726117267307382 L -3.019871921551896 1.7726117267307382 Z"></path></clipPath></defs></svg>